<?xml version="1.0" standalone="no"?>
<!DOCTYPE svg PUBLIC "-//W3C//DTD SVG 20010904//EN"
 "http://www.w3.org/TR/2001/REC-SVG-20010904/DTD/svg10.dtd">
<svg version="1.0" xmlns="http://www.w3.org/2000/svg"
 width="700.000000pt" height="700.000000pt" viewBox="0 0 700.000000 700.000000"
 preserveAspectRatio="xMidYMid meet">
<metadata>
Created by potrace 1.14, written by Peter Selinger 2001-2017
</metadata>
<g transform="translate(0.000000,700.000000) scale(0.100000,-0.100000)"
fill="#000000" stroke="none">
<path d="M5536 5820 c-76 -24 -115 -109 -85 -187 6 -15 206 -224 446 -464 240
-240 436 -439 437 -443 0 -4 -721 -729 -1603 -1611 l-1604 -1604 -616 616
c-339 339 -894 894 -1234 1234 l-618 618 89 88 c49 48 219 214 377 368 157
154 289 282 291 285 3 2 370 -361 817 -808 550 -550 823 -816 847 -825 121
-49 235 91 165 200 -22 35 -1717 1731 -1753 1755 -33 22 -93 23 -131 3 -16 -8
-65 -49 -108 -92 -44 -43 -245 -240 -447 -438 -203 -198 -387 -379 -411 -402
-76 -72 -94 -137 -56 -198 29 -47 2706 -2719 2737 -2731 14 -6 41 -10 58 -9
17 2 38 3 46 4 8 0 795 781 1748 1734 1391 1391 1735 1739 1744 1769 26 87 41
68 -495 606 -271 271 -503 502 -517 512 -32 23 -86 32 -124 20z"/>
<path d="M4970 5266 c-41 -23 -1432 -1419 -1446 -1452 -23 -55 1 -135 51 -168
33 -22 93 -27 130 -12 37 16 1429 1405 1451 1449 20 38 14 105 -12 140 -38 51
-121 72 -174 43z"/>
</g>
</svg>
